<svg id="Layer_1" data-name="Layer 1" xmlns="http://www.w3.org/2000/svg" xmlns:xlink="http://www.w3.org/1999/xlink" viewBox="0 0 150.98 136.64"><defs><style>.cls-1{fill:#bdd4de;}.cls-2{fill:#71e5f2;}.cls-3{fill:url(#linear-gradient);}.cls-4{fill:#001eaa;}.cls-5{fill:url(#linear-gradient-2);}.cls-6{fill:#215dff;}.cls-7{fill:url(#linear-gradient-3);}.cls-8{fill:url(#linear-gradient-4);}.cls-9{fill:url(#linear-gradient-5);}.cls-10{fill:url(#linear-gradient-6);}.cls-11{fill:url(#linear-gradient-7);}.cls-12{fill:url(#linear-gradient-8);}.cls-13{fill:url(#linear-gradient-9);}.cls-14{fill:url(#linear-gradient-10);}.cls-15{fill:url(#linear-gradient-11);}.cls-16{fill:url(#linear-gradient-12);}.cls-17{fill:url(#linear-gradient-13);}.cls-18{fill:url(#linear-gradient-14);}.cls-19{fill:url(#linear-gradient-15);}.cls-20{fill:url(#linear-gradient-16);}.cls-21{fill:#ecfbff;}</style><linearGradient id="linear-gradient" x1="7239.97" y1="74.88" x2="7239.97" y2="66.71" gradientTransform="matrix(-1, 0, 0, 1, 7265.76, 0)" gradientUnits="userSpaceOnUse"><stop offset="0" stop-color="#71e5f2"/><stop offset="1" stop-color="#fff"/></linearGradient><linearGradient id="linear-gradient-2" x1="36.47" y1="62.59" x2="52.12" y2="62.59" gradientUnits="userSpaceOnUse"><stop offset="0" stop-color="#44efff"/><stop offset="1" stop-color="#1500dd"/></linearGradient><linearGradient id="linear-gradient-3" x1="96.42" y1="66.48" x2="109.86" y2="66.48" gradientUnits="userSpaceOnUse"><stop offset="0" stop-color="#2addff"/><stop offset="1" stop-color="#0023b2"/></linearGradient><linearGradient id="linear-gradient-4" x1="105.26" y1="66.48" x2="123.04" y2="66.48" xlink:href="#linear-gradient-3"/><linearGradient id="linear-gradient-5" x1="89.81" y1="66.48" x2="105.26" y2="66.48" xlink:href="#linear-gradient-3"/><linearGradient id="linear-gradient-6" x1="75.26" y1="60.77" x2="89.81" y2="60.77" gradientUnits="userSpaceOnUse"><stop offset="0" stop-color="#44efff"/><stop offset="1" stop-color="#0023b2"/></linearGradient><linearGradient id="linear-gradient-7" x1="58.89" y1="60.77" x2="82.53" y2="60.77" xlink:href="#linear-gradient-2"/><linearGradient id="linear-gradient-8" x1="51.53" y1="62.59" x2="58.89" y2="62.59" xlink:href="#linear-gradient-3"/><linearGradient id="linear-gradient-9" x1="25.79" y1="70.82" x2="41.06" y2="70.82" xlink:href="#linear-gradient-3"/><linearGradient id="linear-gradient-10" x1="50.37" y1="105.33" x2="61.86" y2="121.8" gradientUnits="userSpaceOnUse"><stop offset="0" stop-color="#fff"/><stop offset="0.37" stop-color="#44efff"/><stop offset="0.85" stop-color="#0023b2"/></linearGradient><linearGradient id="linear-gradient-11" x1="59.84" y1="98.73" x2="71.33" y2="115.2" xlink:href="#linear-gradient-10"/><linearGradient id="linear-gradient-12" x1="65.55" y1="94.74" x2="77.04" y2="111.21" xlink:href="#linear-gradient-10"/><linearGradient id="linear-gradient-13" x1="75.55" y1="87.77" x2="87.04" y2="104.24" xlink:href="#linear-gradient-10"/><linearGradient id="linear-gradient-14" x1="83.71" y1="82.08" x2="95.2" y2="98.54" xlink:href="#linear-gradient-10"/><linearGradient id="linear-gradient-15" x1="89.62" y1="77.95" x2="101.11" y2="94.42" xlink:href="#linear-gradient-10"/><linearGradient id="linear-gradient-16" x1="99.32" y1="71.18" x2="110.81" y2="87.65" xlink:href="#linear-gradient-10"/></defs><rect class="cls-1" width="150.98" height="136.64"/><path class="cls-2" d="M25.76,74.88h0v0Z" transform="translate(0)"/><path class="cls-3" d="M25.76,74.88h0v0Z" transform="translate(0)"/><polygon class="cls-4" points="51.53 74.91 67.63 74.91 58.89 55.11 51.53 74.91"/><polygon class="cls-5" points="36.47 66.73 41.06 74.91 51.53 74.91 52.12 50.26 36.47 66.73"/><path class="cls-6" d="M123,71.68l-13.18,3.23h16.7v0Z" transform="translate(0)"/><polygon class="cls-4" points="82.53 74.91 96.42 74.91 89.81 67.84 82.53 74.91"/><polygon class="cls-7" points="96.42 74.91 109.86 74.91 105.26 58.04 96.42 74.91"/><polygon class="cls-8" points="109.86 74.91 123.04 71.68 105.26 58.04 109.86 74.91"/><polygon class="cls-9" points="89.81 67.84 96.42 74.91 105.26 58.04 89.81 67.84"/><polygon class="cls-10" points="75.26 46.63 82.53 74.91 89.81 67.84 75.26 46.63"/><polygon class="cls-11" points="58.89 55.11 67.63 74.91 82.53 74.91 75.26 46.63 58.89 55.11"/><polygon class="cls-12" points="52.12 50.26 51.53 74.91 58.89 55.11 52.12 50.26"/><path class="cls-13" d="M36.47,66.73,25.79,74.88v0H41.06Z" transform="translate(0)"/><path class="cls-14" d="M48.81,89.52v11.82a5.87,5.87,0,0,1-2,4.67,7.49,7.49,0,0,1-5.11,1.73,6,6,0,0,1-1-.1c-.4-.06-.78-.14-1.15-.22l-1.3-.32.54-2.1c.11,0,.29.08.54.14l.84.17.92.15a4.85,4.85,0,0,0,.77.07,5.25,5.25,0,0,0,3.41-1.06,3.65,3.65,0,0,0,1.26-3v-1.9a6.41,6.41,0,0,1-1.71,1.34,6.93,6.93,0,0,1-3.13.75,6.58,6.58,0,0,1-5-2,6.94,6.94,0,0,1-2-5.08,7.58,7.58,0,0,1,2-5.34,6.51,6.51,0,0,1,5-2.21,6.43,6.43,0,0,1,2.91.7,7,7,0,0,1,1.9,1.62V87.37h4.78v2.15Zm-3.74,1.17a4.44,4.44,0,0,0-3.35-1.53,4.27,4.27,0,0,0-3.33,1.5A5.51,5.51,0,0,0,37,94.44a5.28,5.28,0,0,0,1.32,3.69,4.32,4.32,0,0,0,3.38,1.42A4.46,4.46,0,0,0,45.1,98.1a5.28,5.28,0,0,0,1.37-3.66A5.45,5.45,0,0,0,45.07,90.69Z" transform="translate(0)"/><path class="cls-15" d="M53.65,101.48V83.76h-2.4V81.61H56V99.33h2.37v2.15Z" transform="translate(0)"/><path class="cls-16" d="M68.45,101.48v-1.4a8,8,0,0,1-.84.55c-.28.15-.57.31-.89.46a6.46,6.46,0,0,1-2.6.58,4.42,4.42,0,0,1-3.27-1.28,4.29,4.29,0,0,1-1.28-3.07,4.15,4.15,0,0,1,1.5-3.27A5.89,5.89,0,0,1,65,92.79a8.69,8.69,0,0,1,2,.25c.26.07.51.15.76.24a5,5,0,0,1,.77.32V91.19a1.86,1.86,0,0,0-.75-1.7,4.26,4.26,0,0,0-2.32-.56,4.16,4.16,0,0,0-.88.1,9.42,9.42,0,0,0-1,.24l-.84.26-.55.18L61.49,88a12.94,12.94,0,0,1,1.42-.52c.4-.12.82-.24,1.28-.35A5.39,5.39,0,0,1,65.43,87a9.44,9.44,0,0,1,2.24.24,4.64,4.64,0,0,1,1.68.77,3.76,3.76,0,0,1,1.45,3.18v8.14H73v2.15Zm0-5.73A15.59,15.59,0,0,0,67,95.08a5.61,5.61,0,0,0-1.82-.31,3.4,3.4,0,0,0-2.43.79,2.4,2.4,0,0,0-.84,1.87A2.19,2.19,0,0,0,62.61,99a2.49,2.49,0,0,0,1.85.67,4.94,4.94,0,0,0,2.18-.58,6.82,6.82,0,0,0,1.81-1.32Z" transform="translate(0)"/><path class="cls-17" d="M84.76,99.37a6,6,0,0,1-1.43,1.38,6.38,6.38,0,0,1-3.72,1.12,6.59,6.59,0,0,1-5.06-2.1,7.57,7.57,0,0,1-1.93-5.33,7.71,7.71,0,0,1,1.93-5.28A6.37,6.37,0,0,1,79.44,87a5.58,5.58,0,0,1,2.68.62,5.42,5.42,0,0,1,1.09.75V88.2h2.1v5.09H83.24a6.34,6.34,0,0,0-.36-2A2.86,2.86,0,0,0,82,90.11a4.25,4.25,0,0,0-2.6-.9,4,4,0,0,0-3.18,1.43,6.32,6.32,0,0,0,0,7.6,4.26,4.26,0,0,0,3.36,1.42,4.11,4.11,0,0,0,2.54-.78,5,5,0,0,0,.92-1,7.34,7.34,0,0,0,.81-1.55l2,.83A8.88,8.88,0,0,1,84.76,99.37Z" transform="translate(0)"/><path class="cls-18" d="M89.42,101.48v-1.26h0V89.52H87.08V87.37h4.66v12H94v2.15ZM91.27,84a1.57,1.57,0,0,1-2.66-1.09,1.51,1.51,0,0,1,.48-1.12,1.56,1.56,0,0,1,2.65,1.09A1.52,1.52,0,0,1,91.27,84Z" transform="translate(0)"/><path class="cls-19" d="M96.35,95.19a5.22,5.22,0,0,0,1.46,3.1,4.89,4.89,0,0,0,3.69,1.51,4.29,4.29,0,0,0,.9-.12c.37-.09.73-.18,1.08-.3l1-.33.64-.25.59,1.92c-.64.25-1.18.44-1.65.58s-1,.27-1.45.39a5.82,5.82,0,0,1-1.32.18,6.89,6.89,0,0,1-5.19-2.12A7.19,7.19,0,0,1,94,94.44a7.51,7.51,0,0,1,2-5.34,6.9,6.9,0,0,1,5.17-2.1,6.51,6.51,0,0,1,5,2.07,7,7,0,0,1,1.48,2.53,13.41,13.41,0,0,1,.62,3.59Zm7.94-4.86a4.47,4.47,0,0,0-3.21-1.2,4.34,4.34,0,0,0-3.41,1.51,5.14,5.14,0,0,0-1.2,2.4h9.27A5.71,5.71,0,0,0,104.29,90.33Z" transform="translate(0)"/><path class="cls-20" d="M118.81,89.46a7.05,7.05,0,0,0-2.36.34,4.48,4.48,0,0,0-1.55.86,4,4,0,0,0-.91,1.23,4.9,4.9,0,0,0-.32,2v5.48h2.71v2.15h-5.06v-12h-2.51V87.37h4.86v1.39a1.39,1.39,0,0,1,.5-.39,4.47,4.47,0,0,0,.59-.28,5.85,5.85,0,0,1,.92-.33c.34-.09.69-.17,1-.23s.73-.09,1.09-.11.7,0,1,0l1,0v2Z" transform="translate(0)"/><path class="cls-21" d="M103.14,55.76c.61-.63,1.68-1.79,2.78-1.77,1.44,0,1.84,1.33,3.14,1.23,1.53-.11,1.69-1.95,3.14-2s2.34,2,3.46,1.55c.91-.41.85-2,1.58-2.21.48-.13,1.26.35,2.58,3.25Z" transform="translate(0)"/><path class="cls-21" d="M95.71,54.12A4.7,4.7,0,1,1,91,49.43,4.69,4.69,0,0,1,95.71,54.12Z" transform="translate(0)"/><polygon class="cls-21" points="89.81 35.63 90.14 36.5 91.02 36.83 90.14 37.15 89.81 38.03 89.49 37.15 88.61 36.83 89.49 36.5 89.81 35.63"/><polygon class="cls-21" points="43.52 50.23 43.84 51.11 44.72 51.43 43.84 51.76 43.52 52.63 43.19 51.76 42.31 51.43 43.19 51.11 43.52 50.23"/><polygon class="cls-21" points="30.95 62.2 31.28 63.08 32.16 63.4 31.28 63.73 30.95 64.61 30.63 63.73 29.75 63.4 30.63 63.08 30.95 62.2"/><polygon class="cls-21" points="71.55 28.82 72.42 28.5 72.75 27.62 73.07 28.5 73.95 28.82 73.07 29.15 72.75 30.02 72.42 29.15 71.55 28.82"/><polygon class="cls-21" points="35.27 43.42 36.15 43.09 36.47 42.22 36.8 43.09 37.67 43.42 36.8 43.74 36.47 44.62 36.15 43.74 35.27 43.42"/><polygon class="cls-21" points="100.4 30.59 101.28 30.27 101.6 29.39 101.93 30.27 102.81 30.59 101.93 30.92 101.6 31.8 101.28 30.92 100.4 30.59"/><polygon class="cls-21" points="102.87 42.13 103.74 41.81 104.07 40.93 104.39 41.81 105.27 42.13 104.39 42.46 104.07 43.34 103.74 42.46 102.87 42.13"/><polygon class="cls-21" points="85.61 43.77 86.08 45.04 87.35 45.51 86.08 45.97 85.61 47.24 85.15 45.97 83.88 45.51 85.15 45.04 85.61 43.77"/><polygon class="cls-21" points="73.87 37.58 74.49 39.27 76.19 39.9 74.49 40.52 73.87 42.22 73.24 40.52 71.55 39.9 73.24 39.27 73.87 37.58"/><polygon class="cls-21" points="122.11 59.88 122.74 61.58 124.43 62.2 122.74 62.83 122.11 64.52 121.48 62.83 119.79 62.2 121.48 61.58 122.11 59.88"/><path class="cls-21" d="M55.22,47.14c.6-.63,1.67-1.79,2.77-1.77,1.44,0,1.84,1.33,3.14,1.24,1.53-.12,1.69-2,3.14-2.06,1.6-.11,2.34,2.05,3.46,1.55.91-.41.86-2,1.59-2.21.47-.13,1.26.35,2.58,3.25Z" transform="translate(0)"/></svg>