<svg id="Layer_1" data-name="Layer 1" xmlns="http://www.w3.org/2000/svg" xmlns:xlink="http://www.w3.org/1999/xlink" viewBox="0 0 540.22 544.39"><defs><style>.cls-1{fill:#e68e86;}.cls-2{fill:#792420;}.cls-3{fill:#fff;}.cls-4{fill:url(#linear-gradient);}.cls-5{fill:url(#linear-gradient-2);}.cls-6{fill:url(#linear-gradient-3);}.cls-7{fill:url(#linear-gradient-4);}.cls-8{fill:url(#linear-gradient-5);}.cls-9{fill:url(#linear-gradient-6);}.cls-10{fill:url(#linear-gradient-7);}.cls-11{fill:url(#linear-gradient-8);}.cls-12{fill:url(#linear-gradient-9);}.cls-13{fill:url(#linear-gradient-10);}.cls-14{fill:url(#linear-gradient-11);}.cls-15{fill:url(#linear-gradient-12);}.cls-16{fill:url(#linear-gradient-13);}.cls-17{fill:url(#linear-gradient-14);}.cls-18{fill:url(#linear-gradient-15);}.cls-19{fill:url(#linear-gradient-16);}.cls-20{fill:url(#linear-gradient-17);}.cls-21{fill:url(#linear-gradient-18);}.cls-22{fill:url(#linear-gradient-19);}.cls-23{fill:url(#linear-gradient-20);}.cls-24{fill:url(#linear-gradient-21);}.cls-25{fill:url(#linear-gradient-22);}.cls-26{fill:url(#linear-gradient-23);}.cls-27{fill:url(#linear-gradient-24);}.cls-28{fill:url(#linear-gradient-25);}.cls-29{fill:url(#linear-gradient-26);}.cls-30{fill:url(#linear-gradient-27);}.cls-31{fill:url(#linear-gradient-28);}.cls-32{fill:url(#linear-gradient-29);}.cls-33{fill:url(#linear-gradient-30);}.cls-34{fill:url(#linear-gradient-31);}.cls-35{fill:url(#linear-gradient-32);}.cls-36{fill:url(#linear-gradient-33);}.cls-37{fill:url(#linear-gradient-34);}.cls-38{fill:url(#linear-gradient-35);}.cls-39{fill:url(#linear-gradient-36);}.cls-40{fill:url(#linear-gradient-37);}.cls-41{fill:url(#linear-gradient-38);}.cls-42{fill:url(#linear-gradient-39);}.cls-43{fill:url(#linear-gradient-40);}.cls-44{fill:url(#linear-gradient-41);}.cls-45{fill:url(#linear-gradient-42);}.cls-46{fill:url(#linear-gradient-43);}.cls-47{fill:url(#linear-gradient-44);}.cls-48{fill:url(#linear-gradient-45);}.cls-49{fill:url(#linear-gradient-46);}.cls-50{fill:url(#linear-gradient-47);}.cls-51{fill:url(#linear-gradient-48);}.cls-52{fill:url(#linear-gradient-49);}.cls-53{fill:url(#linear-gradient-50);}.cls-54{fill:url(#linear-gradient-51);}.cls-55{fill:url(#linear-gradient-52);}.cls-56{fill:url(#linear-gradient-53);}.cls-57{fill:url(#linear-gradient-54);}.cls-58{fill:url(#linear-gradient-55);}.cls-59{fill:url(#linear-gradient-56);}.cls-60{fill:url(#linear-gradient-57);}.cls-61{fill:url(#linear-gradient-58);}</style><linearGradient id="linear-gradient" x1="59.4" y1="112.95" x2="94.14" y2="112.95" gradientUnits="userSpaceOnUse"><stop offset="0" stop-color="#65140a"/><stop offset="1" stop-color="#e68e86"/></linearGradient><linearGradient id="linear-gradient-2" x1="128.88" y1="112.95" x2="163.62" y2="112.95" gradientUnits="userSpaceOnUse"><stop offset="0" stop-color="#fff3f2"/><stop offset="1" stop-color="#e68e86"/></linearGradient><linearGradient id="linear-gradient-3" x1="128.88" y1="183.73" x2="163.62" y2="183.73" xlink:href="#linear-gradient"/><linearGradient id="linear-gradient-4" x1="163.62" y1="219.11" x2="198.36" y2="219.11" xlink:href="#linear-gradient-2"/><linearGradient id="linear-gradient-5" x1="94.14" y1="219.11" x2="128.88" y2="219.11" xlink:href="#linear-gradient-2"/><linearGradient id="linear-gradient-6" x1="163.62" y1="95.26" x2="198.36" y2="95.26" xlink:href="#linear-gradient"/><linearGradient id="linear-gradient-7" x1="59.4" y1="236.81" x2="94.14" y2="236.81" xlink:href="#linear-gradient"/><linearGradient id="linear-gradient-8" x1="59.42" y1="148.34" x2="94.14" y2="148.34" xlink:href="#linear-gradient-2"/><linearGradient id="linear-gradient-9" x1="133.49" y1="254.5" x2="159.01" y2="254.5" gradientTransform="translate(222.79 -28.87) rotate(45)" xlink:href="#linear-gradient-2"/><linearGradient id="linear-gradient-10" x1="163.6" y1="431.44" x2="198.34" y2="431.44" xlink:href="#linear-gradient"/><linearGradient id="linear-gradient-11" x1="94.11" y1="431.44" x2="128.85" y2="431.44" gradientTransform="translate(542.92 319.95) rotate(90)" xlink:href="#linear-gradient-2"/><linearGradient id="linear-gradient-12" x1="94.11" y1="360.66" x2="128.85" y2="360.66" xlink:href="#linear-gradient"/><linearGradient id="linear-gradient-13" x1="59.37" y1="325.28" x2="94.11" y2="325.28" xlink:href="#linear-gradient"/><linearGradient id="linear-gradient-14" x1="128.85" y1="325.28" x2="163.6" y2="325.28" xlink:href="#linear-gradient-2"/><linearGradient id="linear-gradient-15" x1="59.37" y1="449.13" x2="94.11" y2="449.13" xlink:href="#linear-gradient"/><linearGradient id="linear-gradient-16" x1="163.6" y1="307.58" x2="198.34" y2="307.58" xlink:href="#linear-gradient"/><linearGradient id="linear-gradient-17" x1="59.4" y1="360.66" x2="94.11" y2="360.66" xlink:href="#linear-gradient"/><linearGradient id="linear-gradient-18" x1="98.73" y1="289.89" x2="124.24" y2="289.89" xlink:href="#linear-gradient-2"/><linearGradient id="linear-gradient-19" x1="133.48" y1="466.82" x2="158.99" y2="466.82" gradientTransform="translate(583.61 247.7) rotate(80.78)" xlink:href="#linear-gradient-2"/><linearGradient id="linear-gradient-20" x1="339.91" y1="77.24" x2="375.3" y2="77.24" xlink:href="#linear-gradient"/><linearGradient id="linear-gradient-21" x1="339.91" y1="146.72" x2="375.3" y2="146.72" xlink:href="#linear-gradient-2"/><linearGradient id="linear-gradient-22" x1="269.14" y1="146.72" x2="304.52" y2="146.72" xlink:href="#linear-gradient"/><linearGradient id="linear-gradient-23" x1="233.75" y1="181.47" x2="269.14" y2="181.47" xlink:href="#linear-gradient-2"/><linearGradient id="linear-gradient-24" x1="233.75" y1="111.98" x2="269.14" y2="111.98" xlink:href="#linear-gradient-2"/><linearGradient id="linear-gradient-25" x1="339.91" y1="181.47" x2="410.69" y2="181.47" xlink:href="#linear-gradient"/><linearGradient id="linear-gradient-26" x1="198.36" y1="77.24" x2="269.14" y2="77.24" xlink:href="#linear-gradient"/><linearGradient id="linear-gradient-27" x1="203.3" y1="146.72" x2="228.81" y2="146.72" xlink:href="#linear-gradient-2"/><linearGradient id="linear-gradient-28" x1="380.23" y1="111.97" x2="405.75" y2="111.97" xlink:href="#linear-gradient-2"/><linearGradient id="linear-gradient-29" x1="199.65" y1="254.5" x2="234.39" y2="254.5" xlink:href="#linear-gradient"/><linearGradient id="linear-gradient-30" x1="269.14" y1="254.5" x2="303.88" y2="254.5" xlink:href="#linear-gradient-2"/><linearGradient id="linear-gradient-31" x1="269.14" y1="325.28" x2="303.88" y2="325.28" gradientTransform="translate(-38.77 611.78) rotate(-90)" xlink:href="#linear-gradient"/><linearGradient id="linear-gradient-32" x1="234.39" y1="360.66" x2="269.14" y2="360.66" xlink:href="#linear-gradient-2"/><linearGradient id="linear-gradient-33" x1="199.65" y1="378.36" x2="234.39" y2="378.36" xlink:href="#linear-gradient"/><linearGradient id="linear-gradient-34" x1="199.68" y1="289.89" x2="234.39" y2="289.89" xlink:href="#linear-gradient-2"/><linearGradient id="linear-gradient-35" x1="446.07" y1="181.49" x2="480.85" y2="181.49" xlink:href="#linear-gradient"/><linearGradient id="linear-gradient-36" x1="446.07" y1="112.01" x2="480.85" y2="112.01" xlink:href="#linear-gradient-2"/><linearGradient id="linear-gradient-37" x1="410.69" y1="77.27" x2="480.85" y2="77.27" xlink:href="#linear-gradient"/><linearGradient id="linear-gradient-38" x1="444.19" y1="465.86" x2="478.97" y2="465.86" xlink:href="#linear-gradient"/><linearGradient id="linear-gradient-39" x1="444.19" y1="431.13" x2="478.97" y2="431.13" xlink:href="#linear-gradient-2"/><linearGradient id="linear-gradient-40" x1="444.19" y1="396.37" x2="478.97" y2="396.37" xlink:href="#linear-gradient"/><linearGradient id="linear-gradient-41" x1="408.8" y1="361.63" x2="478.97" y2="361.63" xlink:href="#linear-gradient"/><linearGradient id="linear-gradient-42" x1="338.64" y1="396.36" x2="373.42" y2="396.36" xlink:href="#linear-gradient-2"/><linearGradient id="linear-gradient-43" x1="338.64" y1="431.11" x2="373.42" y2="431.11" xlink:href="#linear-gradient"/><linearGradient id="linear-gradient-44" x1="338.64" y1="465.86" x2="408.8" y2="465.86" xlink:href="#linear-gradient"/><linearGradient id="linear-gradient-45" x1="199.68" y1="466.52" x2="234.42" y2="466.52" xlink:href="#linear-gradient"/><linearGradient id="linear-gradient-46" x1="234.42" y1="466.52" x2="269.14" y2="466.52" xlink:href="#linear-gradient-2"/><linearGradient id="linear-gradient-47" x1="269.16" y1="466.52" x2="303.9" y2="466.52" xlink:href="#linear-gradient"/><linearGradient id="linear-gradient-48" x1="303.9" y1="448.82" x2="338.64" y2="448.82" xlink:href="#linear-gradient"/><linearGradient id="linear-gradient-49" x1="338.62" y1="254.81" x2="373.39" y2="254.81" xlink:href="#linear-gradient-2"/><linearGradient id="linear-gradient-50" x1="338.62" y1="289.57" x2="373.39" y2="289.57" xlink:href="#linear-gradient"/><linearGradient id="linear-gradient-51" x1="338.62" y1="324.31" x2="408.78" y2="324.31" xlink:href="#linear-gradient"/><linearGradient id="linear-gradient-52" x1="444.17" y1="324.31" x2="478.94" y2="324.31" xlink:href="#linear-gradient"/><linearGradient id="linear-gradient-53" x1="408.78" y1="220.08" x2="478.94" y2="220.08" xlink:href="#linear-gradient"/><linearGradient id="linear-gradient-54" x1="413.72" y1="289.58" x2="439.23" y2="289.58" xlink:href="#linear-gradient-2"/><linearGradient id="linear-gradient-55" x1="303.88" y1="236.81" x2="339.91" y2="236.81" xlink:href="#linear-gradient"/><linearGradient id="linear-gradient-56" x1="339.91" y1="219.44" x2="373.39" y2="219.44" xlink:href="#linear-gradient"/><linearGradient id="linear-gradient-57" x1="303.88" y1="360.99" x2="338.64" y2="360.99" xlink:href="#linear-gradient-2"/><linearGradient id="linear-gradient-58" x1="338.64" y1="360.99" x2="373.42" y2="360.99" xlink:href="#linear-gradient"/></defs><rect class="cls-1" width="540.22" height="544.39" transform="translate(540.22 544.39) rotate(180)"/><path class="cls-2" d="M128.85,59.87V95.26h34.77v-.62A34.77,34.77,0,0,0,128.85,59.87Z" transform="translate(0 0)"/><path class="cls-3" d="M94.14,130.64V166a34.74,34.74,0,0,0,34.74-34.74v-.65Z" transform="translate(0 0)"/><path class="cls-4" d="M59.4,130v.64H94.14V95.26A34.74,34.74,0,0,0,59.4,130Z" transform="translate(0 0)"/><polygon class="cls-2" points="94.14 95.26 128.85 95.26 128.85 130.65 94.14 95.26"/><polygon class="cls-3" points="59.42 59.87 94.14 59.87 94.14 95.26 59.42 59.87"/><path class="cls-5" d="M128.88,130v.64h34.74V95.26A34.74,34.74,0,0,0,128.88,130Z" transform="translate(0 0)"/><path class="cls-3" d="M163.62,130.64V166a34.74,34.74,0,0,0,34.74-34.74v-.65Z" transform="translate(0 0)"/><polygon class="cls-2" points="163.62 166.03 128.9 166.03 128.9 130.65 163.62 166.03"/><path class="cls-2" d="M94.14,236.81v35.38h0a34.76,34.76,0,0,0,34.76-34.76v-.62Z" transform="translate(0 0)"/><path class="cls-6" d="M128.88,200.77v.65h34.74V166A34.74,34.74,0,0,0,128.88,200.77Z" transform="translate(0 0)"/><path class="cls-7" d="M163.62,201.42v35.39h0a34.74,34.74,0,0,0,34.74-34.74v-.65Z" transform="translate(0 0)"/><polygon class="cls-2" points="163.62 236.81 128.9 236.81 128.9 201.42 163.62 236.81"/><polygon class="cls-3" points="198.34 272.19 163.62 272.19 163.62 236.81 198.34 272.19"/><path class="cls-8" d="M94.14,201.42v35.39h0a34.75,34.75,0,0,0,34.74-34.74v-.65Z" transform="translate(0 0)"/><path class="cls-3" d="M59.4,200.77v.65H94.14V166A34.74,34.74,0,0,0,59.4,200.77Z" transform="translate(0 0)"/><polygon class="cls-2" points="94.14 166.03 128.85 166.03 128.85 201.42 94.14 166.03"/><polygon class="cls-9" points="163.62 59.87 198.36 59.87 163.62 130.65 163.62 59.87"/><polygon class="cls-10" points="94.14 272.19 59.4 272.19 94.14 201.42 94.14 272.19"/><polygon class="cls-2" points="163.62 166.03 198.34 183.73 163.62 201.42 163.62 166.03"/><polygon class="cls-11" points="94.14 166.03 59.42 148.34 94.14 130.65 94.14 166.03"/><circle class="cls-12" cx="146.25" cy="254.5" r="12.76" transform="translate(-137.12 177.96) rotate(-45)"/><circle class="cls-2" cx="111.5" cy="77.56" r="12.76" transform="translate(17.07 175.2) rotate(-80.78)"/><path class="cls-2" d="M94.11,449.13v.62a34.77,34.77,0,0,0,34.77,34.77V449.13Z" transform="translate(0 0)"/><path class="cls-3" d="M163.6,378.36a34.74,34.74,0,0,0-34.75,34.74v.64H163.6V378.36Z" transform="translate(0 0)"/><path class="cls-13" d="M163.6,413.74v35.39a34.74,34.74,0,0,0,34.74-34.74v-.65Z" transform="translate(0 0)"/><polygon class="cls-2" points="163.6 449.13 128.88 449.13 128.88 413.74 163.6 449.13"/><polygon class="cls-3" points="198.31 484.52 163.6 484.52 163.6 449.13 198.31 484.52"/><path class="cls-14" d="M93.79,414.07h35.39a0,0,0,0,1,0,0v34.74a0,0,0,0,1,0,0H112.44a18.65,18.65,0,0,1-18.65-18.65V414.07A0,0,0,0,1,93.79,414.07Z" transform="translate(-319.95 542.92) rotate(-90)"/><path class="cls-3" d="M59.37,413.1v.64H94.11V378.36A34.74,34.74,0,0,0,59.37,413.1Z" transform="translate(0 0)"/><polygon class="cls-2" points="94.11 378.36 128.83 378.36 128.83 413.74 94.11 378.36"/><path class="cls-2" d="M163.6,272.19A34.77,34.77,0,0,0,128.83,307v.62H163.6V272.19Z" transform="translate(0 0)"/><path class="cls-15" d="M94.11,343v35.39a34.74,34.74,0,0,0,34.74-34.75V343Z" transform="translate(0 0)"/><path class="cls-16" d="M59.37,342.32V343H94.11V307.58A34.75,34.75,0,0,0,59.37,342.32Z" transform="translate(0 0)"/><polygon class="cls-2" points="94.11 307.58 128.83 307.58 128.83 342.97 94.11 307.58"/><polygon class="cls-3" points="59.4 272.19 94.11 272.19 94.11 307.58 59.4 272.19"/><path class="cls-17" d="M163.6,307.58a34.75,34.75,0,0,0-34.75,34.74V343H163.6V307.58Z" transform="translate(0 0)"/><path class="cls-3" d="M163.6,343v35.39a34.75,34.75,0,0,0,34.74-34.75V343Z" transform="translate(0 0)"/><polygon class="cls-2" points="163.6 378.36 128.88 378.36 128.88 342.97 163.6 378.36"/><polygon class="cls-18" points="94.11 484.52 59.37 484.52 94.11 413.74 94.11 484.52"/><polygon class="cls-19" points="163.6 272.19 198.34 272.19 163.6 342.97 163.6 272.19"/><polygon class="cls-20" points="94.11 378.36 59.4 360.66 94.11 342.97 94.11 378.36"/><polygon class="cls-2" points="163.6 378.36 198.31 396.05 163.6 413.74 163.6 378.36"/><path class="cls-21" d="M111.48,277.13a12.76,12.76,0,1,1-12.75,12.76A12.76,12.76,0,0,1,111.48,277.13Z" transform="translate(0 0)"/><circle class="cls-22" cx="146.24" cy="466.82" r="12.76" transform="translate(-337.98 536.4) rotate(-80.78)"/><path class="cls-2" d="M375.3,129.33v34.76h.62a34.77,34.77,0,0,0,34.77-34.76Z" transform="translate(0 0)"/><path class="cls-3" d="M304.52,94.61h0a34.74,34.74,0,0,0,34.75,34.74h.64V94.61Z" transform="translate(0 0)"/><path class="cls-23" d="M340.56,59.87h-.65V94.61H375.3A34.74,34.74,0,0,0,340.56,59.87Z" transform="translate(0 0)"/><polygon class="cls-2" points="375.3 94.61 375.3 129.33 339.91 129.33 375.3 94.61"/><polygon class="cls-3" points="410.69 59.9 410.69 94.61 375.3 94.61 410.69 59.9"/><path class="cls-24" d="M340.56,129.35h-.65v34.74H375.3A34.75,34.75,0,0,0,340.56,129.35Z" transform="translate(0 0)"/><polygon class="cls-2" points="304.52 164.09 304.52 129.38 339.91 129.38 304.52 164.09"/><path class="cls-2" d="M233.13,94.61a34.77,34.77,0,0,0-34.77,34.77h35.39V94.61Z" transform="translate(0 0)"/><path class="cls-25" d="M269.78,129.35h-.64v34.74h35.38A34.74,34.74,0,0,0,269.78,129.35Z" transform="translate(0 0)"/><path class="cls-26" d="M233.75,164.09h0a34.74,34.74,0,0,0,34.74,34.74h.65V164.09Z" transform="translate(0 0)"/><polygon class="cls-2" points="233.75 164.09 233.75 129.38 269.14 129.38 233.75 164.09"/><polygon class="cls-3" points="198.36 198.81 198.36 164.09 233.75 164.09 198.36 198.81"/><path class="cls-27" d="M233.75,94.61h0a34.74,34.74,0,0,0,34.74,34.74h.65V94.61Z" transform="translate(0 0)"/><path class="cls-3" d="M269.78,59.87h-.64V94.61h35.38A34.74,34.74,0,0,0,269.78,59.87Z" transform="translate(0 0)"/><polygon class="cls-2" points="304.52 94.61 304.52 129.33 269.14 129.33 304.52 94.61"/><polygon class="cls-28" points="410.69 164.09 410.69 198.84 339.91 164.09 410.69 164.09"/><polygon class="cls-29" points="198.36 94.61 198.36 59.87 269.14 94.61 198.36 94.61"/><polygon class="cls-2" points="304.52 164.09 286.83 198.81 269.14 164.09 304.52 164.09"/><polygon class="cls-2" points="304.52 94.61 322.22 59.9 339.91 94.61 304.52 94.61"/><circle class="cls-30" cx="216.06" cy="146.72" r="12.76"/><circle class="cls-31" cx="392.99" cy="111.97" r="12.76"/><path class="cls-2" d="M269.11,236.19v.62h34.77V201.42A34.77,34.77,0,0,0,269.11,236.19Z" transform="translate(0 0)"/><path class="cls-3" d="M234.39,272.19v35.39a34.74,34.74,0,0,0,34.75-34.74v-.65Z" transform="translate(0 0)"/><path class="cls-32" d="M234.39,236.81a34.74,34.74,0,0,0-34.74,34.74v.64h34.74V236.81Z" transform="translate(0 0)"/><polygon class="cls-2" points="234.4 236.81 269.11 236.81 269.11 272.19 234.4 236.81"/><polygon class="cls-3" points="199.68 201.42 234.4 201.42 234.4 236.81 199.68 201.42"/><path class="cls-33" d="M269.14,271.55v.64h34.74V236.81A34.74,34.74,0,0,0,269.14,271.55Z" transform="translate(0 0)"/><path class="cls-3" d="M303.88,272.19v35.39a34.74,34.74,0,0,0,34.74-34.74v-.65Z" transform="translate(0 0)"/><polygon class="cls-2" points="303.88 307.58 269.16 307.58 269.16 272.19 303.88 307.58"/><path class="cls-2" d="M234.39,413.12v.62h34.77V378.36A34.77,34.77,0,0,0,234.39,413.12Z" transform="translate(0 0)"/><path class="cls-34" d="M268.81,307.9H304.2a0,0,0,0,1,0,0v34.74a0,0,0,0,1,0,0H287.46A18.65,18.65,0,0,1,268.81,324V307.9A0,0,0,0,1,268.81,307.9Z" transform="translate(611.78 38.77) rotate(90)"/><polygon class="cls-2" points="303.88 378.36 269.16 378.36 269.16 342.97 303.88 378.36"/><polygon class="cls-3" points="338.6 413.74 303.88 413.74 303.88 378.36 338.6 413.74"/><path class="cls-35" d="M234.39,343v35.39a34.75,34.75,0,0,0,34.75-34.75V343Z" transform="translate(0 0)"/><path class="cls-3" d="M234.39,307.58a34.75,34.75,0,0,0-34.74,34.74V343h34.74V307.58Z" transform="translate(0 0)"/><polygon class="cls-2" points="234.4 307.58 269.11 307.58 269.11 342.97 234.4 307.58"/><polygon class="cls-36" points="234.4 413.74 199.65 413.74 234.4 342.97 234.4 413.74"/><polygon class="cls-2" points="303.88 307.58 338.6 325.27 303.88 342.97 303.88 307.58"/><polygon class="cls-37" points="234.4 307.58 199.68 289.89 234.4 272.19 234.4 307.58"/><path class="cls-2" d="M286.51,408.81a12.76,12.76,0,1,1,12.75-12.76A12.76,12.76,0,0,1,286.51,408.81Z" transform="translate(0 0)"/><path class="cls-3" d="M251.75,231.87a12.76,12.76,0,1,1,12.76-12.76A12.75,12.75,0,0,1,251.75,231.87Z" transform="translate(0 0)"/><path class="cls-2" d="M411.31,94.64h-.62V129.4h35.38A34.76,34.76,0,0,0,411.31,94.64Z" transform="translate(0 0)"/><path class="cls-38" d="M446.07,164.12a34.74,34.74,0,0,0,34.74,34.74h0V164.12Z" transform="translate(0 0)"/><polygon class="cls-2" points="480.85 130 480.85 129.4 446.07 129.4 446.07 164.12 480.85 130"/><polygon class="cls-3" points="410.69 198.84 410.69 164.12 446.07 164.12 410.69 198.84"/><path class="cls-39" d="M446.07,94.64v7a27.76,27.76,0,0,0,27.76,27.76h7V94.64Z" transform="translate(0 0)"/><polygon class="cls-40" points="480.85 94.64 480.85 94.33 410.69 59.9 410.69 94.64 480.85 94.64"/><path class="cls-2" d="M441.14,146.76A12.76,12.76,0,1,1,428.38,134,12.76,12.76,0,0,1,441.14,146.76Z" transform="translate(0 0)"/><path class="cls-2" d="M443.57,379a34.77,34.77,0,0,0-34.77,34.77h35.39V379Z" transform="translate(0 0)"/><path class="cls-41" d="M444.19,448.48v34.75h0A34.75,34.75,0,0,0,479,448.48Z" transform="translate(0 0)"/><polygon class="cls-42" points="478.97 414.37 478.97 413.77 444.19 413.77 444.19 448.49 478.97 414.37"/><polygon class="cls-3" points="408.81 483.2 408.81 448.49 444.19 448.49 408.81 483.2"/><path class="cls-43" d="M444.19,379a34.74,34.74,0,0,0,34.74,34.74h0V379Z" transform="translate(0 0)"/><polygon class="cls-44" points="478.97 379 478.97 378.7 408.8 344.26 408.8 379 478.97 379"/><path class="cls-2" d="M413.74,431.11a12.76,12.76,0,1,1,12.76,12.76A12.75,12.75,0,0,1,413.74,431.11Z" transform="translate(0 0)"/><path class="cls-2" d="M373.42,413.72v34.76H374a34.76,34.76,0,0,0,34.76-34.76H373.42Z" transform="translate(0 0)"/><polygon class="cls-45" points="338.64 413.72 373.42 413.72 373.42 379 338.64 413.72"/><polygon class="cls-3" points="408.8 344.29 408.8 379 373.42 379 408.8 344.29"/><path class="cls-46" d="M338.68,413.74h0v34.75h34.78A34.75,34.75,0,0,0,338.68,413.74Z" transform="translate(0 0)"/><polygon class="cls-47" points="338.64 448.49 338.64 448.79 408.81 483.23 408.81 448.49 338.64 448.49"/><circle class="cls-2" cx="391.11" cy="396.37" r="12.76" transform="translate(-80.23 99.86) rotate(-13.21)"/><path class="cls-2" d="M269.14,413.74v.62a34.76,34.76,0,0,0,34.76,34.77V413.74Z" transform="translate(0 0)"/><path class="cls-48" d="M199.68,483.87v0h34.74V449.13A34.74,34.74,0,0,0,199.68,483.87Z" transform="translate(0 0)"/><polygon class="cls-49" points="268.53 483.9 269.14 483.9 269.14 449.13 234.42 449.13 268.53 483.9"/><polygon class="cls-3" points="199.7 413.74 234.42 413.74 234.42 449.13 199.7 413.74"/><path class="cls-50" d="M269.16,483.87v0H303.9V449.13A34.74,34.74,0,0,0,269.16,483.87Z" transform="translate(0 0)"/><polygon class="cls-51" points="303.9 483.9 304.2 483.9 338.64 413.74 303.9 413.74 303.9 483.9"/><circle class="cls-2" cx="251.79" cy="431.44" r="12.76"/><path class="cls-2" d="M373.39,272.17v34.77H374a34.77,34.77,0,0,0,34.77-34.77Z" transform="translate(0 0)"/><polygon class="cls-52" points="338.62 272.17 373.39 272.17 373.39 237.45 338.62 272.17"/><polygon class="cls-3" points="408.78 202.74 408.78 237.45 373.39 237.45 408.78 202.74"/><path class="cls-53" d="M338.65,272.19h0v34.75h34.77A34.74,34.74,0,0,0,338.65,272.19Z" transform="translate(0 0)"/><polygon class="cls-54" points="338.62 306.94 338.62 307.24 408.78 341.68 408.78 306.94 338.62 306.94"/><circle class="cls-2" cx="391.09" cy="254.82" r="12.76"/><path class="cls-2" d="M443.55,237.45a34.77,34.77,0,0,0-34.77,34.77h35.39V237.45Z" transform="translate(0 0)"/><path class="cls-55" d="M444.17,306.94a34.74,34.74,0,0,0,34.74,34.74h0V306.94Z" transform="translate(0 0)"/><polygon class="cls-2" points="478.94 272.82 478.94 272.22 444.17 272.22 444.17 306.94 478.94 272.82"/><polygon class="cls-3" points="408.78 341.65 408.78 306.94 444.17 306.94 408.78 341.65"/><path class="cls-3" d="M444.17,237.45v7a27.74,27.74,0,0,0,27.75,27.75h7V237.45Z" transform="translate(0 0)"/><polygon class="cls-56" points="478.94 237.45 478.94 237.15 408.78 202.71 408.78 237.45 478.94 237.45"/><path class="cls-57" d="M439.23,289.58a12.76,12.76,0,1,1-12.76-12.76A12.75,12.75,0,0,1,439.23,289.58Z" transform="translate(0 0)"/><path class="cls-3" d="M304.52,164.09v37.33h35.39v-1.94A35.39,35.39,0,0,0,304.52,164.09Z" transform="translate(0 0)"/><polygon class="cls-58" points="303.88 201.42 339.91 201.42 303.88 272.19 303.88 201.42"/><path class="cls-59" d="M339.91,201.42v36h33.48V234.9A33.48,33.48,0,0,0,339.91,201.42Z" transform="translate(0 0)"/><path class="cls-60" d="M303.88,343v1.27A34.76,34.76,0,0,0,338.64,379h0V343Z" transform="translate(0 0)"/><path class="cls-61" d="M338.64,377.74V379h34.78V343A34.78,34.78,0,0,0,338.64,377.74Z" transform="translate(0 0)"/></svg>